<svg aria-hidden="true" style="position: absolute; width: 0; height: 0; overflow: hidden;" version="1.1" xmlns="http://www.w3.org/2000/svg" xmlns:xlink="http://www.w3.org/1999/xlink">
<defs>
<symbol id="icon-open-book" viewBox="0 0 20 20">
<title>open-book</title>
<path d="M10.595 5.196l0.446 1.371c0.369-0.316 0.835-0.599 1.441-0.795 0.59-0.192 1.111-0.3 1.582-0.362l-0.43-1.323c-0.476 0.069-1.001 0.18-1.58 0.368s-1.055 0.45-1.459 0.741zM11.522 8.051l0.446 1.371c0.369-0.316 0.835-0.599 1.441-0.795 0.59-0.192 1.111-0.3 1.582-0.362l-0.43-1.323c-0.476 0.069-1.001 0.18-1.58 0.368-0.578 0.187-1.054 0.449-1.459 0.741zM12.45 10.905l0.446 1.371c0.369-0.316 0.835-0.599 1.441-0.795 0.59-0.192 1.111-0.3 1.582-0.362l-0.43-1.323c-0.476 0.069-1.001 0.18-1.58 0.368-0.579 0.187-1.055 0.45-1.459 0.741zM5.388 13.077l0.43 1.323c0.417-0.226 0.902-0.445 1.492-0.636 0.606-0.197 1.149-0.242 1.633-0.203l-0.446-1.371c-0.499 0.002-1.038 0.070-1.615 0.257-0.579 0.188-1.069 0.406-1.494 0.63zM3.533 7.368l0.43 1.323c0.417-0.226 0.902-0.444 1.492-0.636 0.606-0.197 1.149-0.242 1.633-0.203l-0.445-1.372c-0.499 0.003-1.038 0.070-1.616 0.258-0.579 0.188-1.069 0.406-1.494 0.63zM4.46 10.223l0.43 1.323c0.417-0.226 0.902-0.445 1.492-0.636 0.606-0.197 1.149-0.242 1.633-0.203l-0.445-1.372c-0.499 0.002-1.038 0.070-1.615 0.257-0.579 0.188-1.070 0.407-1.495 0.631zM11.064 1.41c-1.723 0.56-2.623 1.752-3.053 2.559-0.822-0.4-2.25-0.835-3.973-0.275-2.523 0.82-3.969 2.627-3.969 2.627l4.095 12.587c0.126 0.387 0.646 0.477 0.878 0.143 0.499-0.719 1.46-1.658 3.257-2.242 1.718-0.558 2.969 0.054 3.655 0.578 0.272 0.208 0.662 0.060 0.762-0.268 0.252-0.827 0.907-2.040 2.61-2.593 1.799-0.585 3.129-0.389 3.956-0.1 0.385 0.134 0.75-0.242 0.625-0.629l-4.088-12.594c0 0-2.232-0.612-4.755 0.207zM10.951 15.256c-0.819-0.244-1.901-0.358-3.141 0.044-1.251 0.406-2.127 0.949-2.699 1.404l-3.245-9.982c0.358-0.358 1.187-1.042 2.662-1.521 1.389-0.451 2.528-0.065 3.279 0.378l3.144 9.677zM17.845 12.567c-0.731-0.032-1.759 0.044-3.010 0.451-1.24 0.403-2.048 1.132-2.567 1.81l-3.144-9.677c0.346-0.8 1.040-1.782 2.43-2.233 1.474-0.479 2.547-0.413 3.047-0.334l3.244 9.983z"></path>
</symbol>
<symbol id="icon-address" viewBox="0 0 20 20">
<title>address</title>
<path d="M19.799 5.165l-2.375-1.83c-0.135-0.093-0.324-0.176-0.521-0.237-0.198-0.061-0.403-0.098-0.567-0.098h-6.836l0.801 5h6.035c0.164 0 0.369-0.037 0.566-0.098s0.387-0.145 0.521-0.236l2.375-1.832c0.135-0.091 0.202-0.212 0.202-0.334s-0.067-0.243-0.201-0.335zM8.5 1h-1c-0.276 0-0.5 0.224-0.5 0.5v3.5h-3.336c-0.166 0-0.37 0.037-0.567 0.099-0.198 0.060-0.387 0.143-0.521 0.236l-2.375 1.83c-0.135 0.091-0.201 0.213-0.201 0.335s0.066 0.242 0.201 0.335l2.375 1.832c0.134 0.091 0.323 0.175 0.521 0.235s0.401 0.098 0.567 0.098h3.336v8.5c0 0.276 0.224 0.5 0.5 0.5h1c0.276 0 0.5-0.224 0.5-0.5v-17c0-0.276-0.224-0.5-0.5-0.5z"></path>
</symbol>
<symbol id="icon-blackboard" viewBox="0 0 20 20">
<title>blackboard</title>
<path d="M2.539 20h3.461l1.406-3.698-2.966-1.004-1.901 4.702zM12.594 16.302l1.406 3.698h3.461l-1.901-4.702-2.966 1.004zM18 2h-6.5l-0.5-2h-2l-0.5 2h-6.5c-0.553 0-1 0.447-1 1v11c0 0.552 0.447 1 1 1h16c0.553 0 1-0.448 1-1v-11c0-0.552-0.447-1-1-1z"></path>
</symbol>
<symbol id="icon-clipboard" viewBox="0 0 20 20">
<title>clipboard</title>
<path d="M15.6 2l-1.2 3h-8.8l-1.2-3c-0.771 0-1.4 0.629-1.4 1.4v15.2c0 0.77 0.629 1.4 1.399 1.4h11.2c0.77 0 1.4-0.631 1.4-1.4v-15.2c0.001-0.771-0.63-1.4-1.399-1.4zM13.6 4l0.9-2h-2.181l-0.719-2h-3.2l-0.72 2h-2.18l0.899 2h7.201z"></path>
</symbol>
<symbol id="icon-graduation-cap" viewBox="0 0 20 20">
<title>graduation-cap</title>
<path d="M3.302 12.238c0.464 1.879 1.054 2.701 3.022 3.562 1.969 0.86 2.904 1.8 3.676 1.8s1.648-0.822 3.616-1.684c1.969-0.861 1.443-1.123 1.907-3.002l-5.523 2.686-6.698-3.362zM19.511 7.336l-8.325-4.662c-0.652-0.365-1.72-0.365-2.372 0l-8.326 4.662c-0.652 0.365-0.652 0.963 0 1.328l8.325 4.662c0.652 0.365 1.72 0.365 2.372 0l5.382-3.014-5.836-1.367c-0.225 0.055-0.472 0.086-0.731 0.086-1.052 0-1.904-0.506-1.904-1.131 0-0.627 0.853-1.133 1.904-1.133 0.816 0 1.51 0.307 1.78 0.734l6.182 2.029 1.549-0.867c0.651-0.364 0.651-0.962 0-1.327zM16.967 16.17c-0.065 0.385 1.283 1.018 1.411-0.107 0.579-5.072-0.416-6.531-0.416-6.531l-1.395 0.781c0-0.001 1.183 1.125 0.4 5.857z"></path>
</symbol>
<symbol id="icon-laptop" viewBox="0 0 20 20">
<title>laptop</title>
<path d="M19.754 15.631c-0.247-0.371-1.754-2.631-1.754-2.631v-9c0-1.102-0.9-2-2-2h-12c-1.101 0-2 0.898-2 2v9c0 0-1.507 2.26-1.754 2.631-0.246 0.369-0.246 0.582-0.246 0.869v0.5c0 0.5 0.5 1 0.999 1h18.002c0.499 0 0.999-0.5 0.999-1v-0.5c0-0.287 0-0.5-0.246-0.869zM7 16l0.6-1h4.8l0.6 1h-6zM16 12h-12v-8h12v8z"></path>
</symbol>
<symbol id="icon-light-bulb" viewBox="0 0 20 20">
<title>light-bulb</title>
<path d="M7.186 19.172c0.789 0.51 1.701 0.855 2.814 0.828 1.111 0.027 2.025-0.318 2.814-0.828l-0.017-2.172h-5.594l-0.017 2.172zM12.697 16c0-4.357 4.63-5.848 4.283-10.188-0.218-2.738-2.073-5.81-6.98-5.81s-6.762 3.072-6.981 5.811c-0.347 4.339 4.284 5.83 4.284 10.187h5.394zM5 6c0.207-2.598 2.113-4 5-4s4.654 1.371 4.861 3.969c0.113 1.424-0.705 2.373-1.809 3.926-0.814 1.146-1.603 2.343-2.052 4.105h-2c-0.449-1.762-1.238-2.959-2.053-4.106-1.103-1.552-2.061-2.47-1.947-3.894z"></path>
</symbol>
<symbol id="icon-location-pin" viewBox="0 0 20 20">
<title>location-pin</title>
<path d="M10 2.009c-2.762 0-5 2.229-5 4.99 0 4.774 5 11 5 11s5-6.227 5-11c0-2.76-2.238-4.99-5-4.99zM10 9.76c-1.492 0-2.7-1.209-2.7-2.7s1.208-2.7 2.7-2.7c1.49 0 2.699 1.209 2.699 2.7s-1.209 2.7-2.699 2.7z"></path>
</symbol>
<symbol id="icon-location" viewBox="0 0 20 20">
<title>location</title>
<path d="M19.367 18.102l-1.367-4.102h-1.5l0.833 4h-14.666l0.833-4h-1.5l-1.368 4.102c-0.347 1.044 0.268 1.898 1.368 1.898h16c1.1 0 1.715-0.854 1.367-1.898zM15 5c0-2.761-2.238-5-5-5s-5 2.239-5 5c0 4.775 5 10 5 10s5-5.225 5-10zM7.3 5.060c0-1.491 1.208-2.699 2.7-2.699s2.7 1.208 2.7 2.699c0 1.492-1.209 2.7-2.7 2.7s-2.7-1.209-2.7-2.7z"></path>
</symbol>
<symbol id="icon-magnifying-glass" viewBox="0 0 20 20">
<title>magnifying-glass</title>
<path d="M17.545 15.467l-3.779-3.779c0.57-0.935 0.898-2.035 0.898-3.21 0-3.417-2.961-6.377-6.378-6.377s-6.186 2.769-6.186 6.186c0 3.416 2.961 6.377 6.377 6.377 1.137 0 2.2-0.309 3.115-0.844l3.799 3.801c0.372 0.371 0.975 0.371 1.346 0l0.943-0.943c0.371-0.371 0.236-0.84-0.135-1.211zM4.004 8.287c0-2.366 1.917-4.283 4.282-4.283s4.474 2.107 4.474 4.474c0 2.365-1.918 4.283-4.283 4.283s-4.473-2.109-4.473-4.474z"></path>
</symbol>
<symbol id="icon-map" viewBox="0 0 20 20">
<title>map</title>
<path d="M19.447 3.718l-6-3c-0.281-0.141-0.613-0.141-0.895 0l-5.63 2.815-5.606-1.869c-0.306-0.102-0.64-0.051-0.901 0.138s-0.415 0.49-0.415 0.811v13.001c0 0.379 0.214 0.725 0.553 0.894l6 3c0.141 0.070 0.294 0.106 0.447 0.106s0.307-0.035 0.447-0.106l5.63-2.814 5.606 1.869c0.305 0.1 0.64 0.049 0.901-0.139s0.415-0.49 0.415-0.81v-13.002c0.001-0.379-0.213-0.725-0.552-0.894zM8 5.231l4-2v11.763l-4 2v-11.763zM2 4l4 1.333v11.661l-4-2v-10.994zM18 16.227l-4-1.334v-11.662l4 2v10.996z"></path>
</symbol>
<symbol id="icon-new" viewBox="0 0 20 20">
<title>new</title>
<path d="M18.69 12.344l-1.727-1.538c-0.5-0.445-0.5-1.174 0-1.619l1.727-1.539c0.5-0.445 0.367-0.859-0.296-0.924l-2.29-0.217c-0.662-0.062-1.020-0.633-0.791-1.266l1.215-3.383c0.228-0.635-0.051-0.865-0.619-0.514l-2.701 1.67c-0.568 0.354-1.303 0.16-1.631-0.426l-0.978-1.746c-0.329-0.588-0.872-0.59-1.207-0.008l-0.909 1.58c-0.337 0.585-1.108 0.833-1.713 0.556l-1.6-0.734c-0.608-0.28-1.073 0.042-1.037 0.716l0.086 1.615c0.037 0.674-0.461 1.367-1.104 1.541l-1.545 0.414c-0.642 0.174-0.76 0.68-0.26 1.125l1.727 1.539c0.5 0.445 0.5 1.174 0 1.619l-1.727 1.539c-0.5 0.445-0.368 0.877 0.293 0.957l2.095 0.254c0.661 0.080 1.029 0.67 0.818 1.311l-1.074 3.258c-0.211 0.641 0.090 0.889 0.668 0.555l2.463-1.426c0.578-0.334 1.356-0.15 1.729 0.408l1.022 1.539c0.372 0.559 0.931 0.529 1.24-0.068l0.899-1.733c0.31-0.598 1.052-0.842 1.648-0.543l1.734 0.867c0.598 0.297 1.057-0.010 1.021-0.682l-0.087-1.617c-0.035-0.674 0.461-1.365 1.106-1.539l1.543-0.416c0.644-0.174 0.762-0.68 0.262-1.125zM11 14h-2v-2h2v2zM11 11h-2v-5h2v5z"></path>
</symbol>
<symbol id="icon-old-phone" viewBox="0 0 20 20">
<title>old-phone</title>
<path d="M17.256 12.253c-0.096-0.667-0.611-1.187-1.274-1.342-2.577-0.604-3.223-2.088-3.332-3.734-0.457-0.085-1.27-0.177-2.65-0.177s-2.193 0.092-2.65 0.177c-0.109 1.646-0.755 3.13-3.332 3.734-0.663 0.156-1.178 0.675-1.274 1.342l-0.497 3.442c-0.175 1.212 0.715 2.305 1.953 2.305h11.6c1.237 0 2.128-1.093 1.953-2.305l-0.497-3.442zM10 15.492c-1.395 0-2.526-1.12-2.526-2.5s1.131-2.5 2.526-2.5 2.526 1.12 2.526 2.5-1.132 2.5-2.526 2.5zM19.95 6c-0.024-1.5-3.842-3.999-9.95-4-6.109 0.001-9.927 2.5-9.95 4s0.021 3.452 2.535 3.127c2.941-0.381 2.76-1.408 2.76-2.876 0-1.024 2.392-1.271 4.655-1.271s4.654 0.247 4.655 1.271c0 1.468-0.181 2.495 2.76 2.876 2.513 0.325 2.558-1.627 2.535-3.127z"></path>
</symbol>
<symbol id="icon-stopwatch" viewBox="0 0 20 20">
<title>stopwatch</title>
<path d="M7.376 6.745c-0.447 0.275 1.197 4.242 1.598 4.888 0.35 0.569 1.093 0.742 1.658 0.394 0.568-0.352 0.745-1.094 0.395-1.66-0.397-0.648-3.205-3.898-3.651-3.622zM7.041 2.402c0.928-0.323 1.922-0.502 2.959-0.502s2.031 0.179 2.959 0.502c0.329 0.114 0.765-0.115 0.572-0.611-0.141-0.36-0.277-0.712-0.332-0.855-0.131-0.339-0.6-0.619-0.804-0.665-0.772-0.174-1.572-0.271-2.395-0.271s-1.623 0.097-2.396 0.271c-0.204 0.046-0.672 0.326-0.803 0.665-0.055 0.143-0.192 0.495-0.332 0.855-0.193 0.496 0.243 0.726 0.572 0.611zM19.098 3.186c-0.192-0.23-0.396-0.455-0.613-0.672-0.216-0.217-0.441-0.42-0.67-0.613-0.153-0.129-0.603-0.234-0.888 0.051s-1.648 1.647-1.648 1.647c0.402 0.288 0.793 0.605 1.155 0.966s0.677 0.752 0.966 1.155c0 0 1.363-1.362 1.647-1.647 0.286-0.286 0.181-0.735 0.051-0.887zM10 2.9c-4.475 0-8.101 3.626-8.101 8.1s3.626 8.101 8.101 8.101c4.473 0 8.1-3.626 8.1-8.101 0-4.473-3.627-8.1-8.1-8.1zM10 17.101c-3.368 0-6.1-2.731-6.1-6.1s2.731-6.1 6.1-6.1c3.369 0 6.101 2.731 6.101 6.1s-2.732 6.1-6.101 6.1z"></path>
</symbol>
<symbol id="icon-tree" viewBox="0 0 20 20">
<title>tree</title>
<path d="M20 10c0-1.361-0.758-2.616-2.031-3.622-0.002-0.001-0.004-0.001-0.005-0.003-0.362-3.572-3.787-6.375-7.964-6.375s-7.602 2.803-7.964 6.375c-0.001 0.002-0.003 0.002-0.005 0.003-1.273 1.006-2.031 2.261-2.031 3.622 0 3.112 3.947 5.669 9 5.97 0 0.338 0 0.683 0 1.030 0 1-1.821 1.911-1.821 1.911-0.099 0.049-0.148 0.173-0.109 0.277 0 0 0.305 0.812 0.93 0.812s1.124-0.5 2.374-0.5 2.439 0.432 2.439 0.432c0.102 0.038 0.251 0.005 0.329-0.073l0.717-0.717c0.078-0.078 0.058-0.173-0.046-0.212 0 0-1.812-0.68-1.812-1.93 0-0.312 0-0.706 0-1.121 4.564-0.555 7.999-2.976 7.999-5.879zM2 10c0-1.019 0.768-1.945 2.022-2.651-0.010-0.116-0.022-0.232-0.022-0.349 0-2.762 2.687-5 6-5s6 2.238 6 5c0 0.117-0.012 0.233-0.021 0.349 1.253 0.706 2.021 1.632 2.021 2.651 0 1.864-2.551 3.424-5.999 3.869 0-0.401 0-0.668 0-0.668 0-0.11 0.065-0.262 0.145-0.337l1.833-1.726c0.080-0.076 0.146-0.227 0.146-0.337v-0.851c0-0.11-0.078-0.155-0.172-0.099l-1.779 1.047c-0.096 0.056-0.173 0.012-0.173-0.099v-3.599c0-0.11-0.085-0.172-0.19-0.137l-2.621 0.874c-0.104 0.035-0.189 0.153-0.189 0.263v2.6c0 0.11-0.079 0.158-0.177 0.107l-2.022-1.064c-0.097-0.051-0.24-0.030-0.318 0.048l-0.342 0.342c-0.078 0.078-0.073 0.201 0.009 0.273l2.7 2.361c0.083 0.073 0.15 0.222 0.15 0.332 0 0 0 0.298 0 0.765-3.945-0.245-7.001-1.924-7.001-3.964z"></path>
</symbol>
<symbol id="icon-unread" viewBox="0 0 20 20">
<title>unread</title>
<path d="M17 3c-1.104 0-2 0.895-2 2s0.896 2 2 2 2-0.895 2-2c0-1.105-0.896-2-2-2zM12.5 4h-11c-0.276 0-0.5 0.224-0.5 0.5v1c0 0.276 0.224 0.5 0.5 0.5h11c0.276 0 0.5-0.224 0.5-0.5v-1c0-0.276-0.224-0.5-0.5-0.5zM12.5 9h-11c-0.276 0-0.5 0.224-0.5 0.5v1c0 0.276 0.224 0.5 0.5 0.5h11c0.276 0 0.5-0.224 0.5-0.5v-1c0-0.276-0.224-0.5-0.5-0.5zM12.5 14h-11c-0.276 0-0.5 0.224-0.5 0.5v1c0 0.276 0.224 0.5 0.5 0.5h11c0.276 0 0.5-0.224 0.5-0.5v-1c0-0.276-0.224-0.5-0.5-0.5z"></path>
</symbol>
<symbol id="icon-users" viewBox="0 0 20 20">
<title>users</title>
<path d="M15.989 19.129c0-2.246-2.187-3.389-4.317-4.307-2.123-0.914-2.801-1.684-2.801-3.334 0-0.989 0.648-0.667 0.932-2.481 0.12-0.752 0.692-0.012 0.802-1.729 0-0.684-0.313-0.854-0.313-0.854s0.159-1.013 0.221-1.793c0.064-0.817-0.398-2.56-2.301-3.095-0.332-0.341-0.557-0.882 0.467-1.424-2.24-0.104-2.761 1.068-3.954 1.93-1.015 0.756-1.289 1.953-1.24 2.59 0.065 0.78 0.223 1.793 0.223 1.793s-0.314 0.17-0.314 0.854c0.11 1.718 0.684 0.977 0.803 1.729 0.284 1.814 0.933 1.492 0.933 2.481 0 1.65-0.212 2.21-2.336 3.124-2.131 0.917-2.794 2.387-2.783 4.516 0.003 0.637-0.011 0.871-0.011 0.871h16c0 0-0.011-0.234-0.011-0.871zM18.528 13.365c-1.135-0.457-1.605-1.002-1.605-2.066 0-0.641 0.418-0.432 0.602-1.603 0.077-0.484 0.447-0.008 0.518-1.115 0-0.441-0.202-0.551-0.202-0.551s0.103-0.656 0.143-1.159c0.050-0.627-0.364-2.247-2.268-2.247s-2.318 1.62-2.269 2.247c0.042 0.502 0.144 1.159 0.144 1.159s-0.202 0.109-0.202 0.551c0.071 1.107 0.441 0.631 0.518 1.115 0.184 1.172 0.602 0.963 0.602 1.603 0 1.064-0.438 1.562-1.809 2.152-0.069 0.029-0.12 0.068-0.183 0.102 1.64 0.712 4.226 1.941 4.838 4.447h2.645c0 0 0-1.906 0-2.318 0-1-0.273-1.834-1.472-2.317z"></path>
</symbol>
</defs>
</svg>
